<svg xmlns="http://www.w3.org/2000/svg" viewBox="0 0 130 137"><g data-name="Layer 2"><g data-name="Layer 1"><path fill="#f93052" d="M121.25 68a55.74 55.74 0 1 1-2.93-17.93A56 56 0 0 1 121.25 68z"/><path fill="#f15a24" d="M118.32 50.07l-71 71a55.64 55.64 0 01-18-10.16c.23-.28.46-.54.72-.8l76.36-76.36a10.23 10.23 0 012-1.53 56.05 56.05 0 019.92 17.85zM96.09 21.25c-.19.22-.38.43-.59.64L19.14 98.25c-.21.21-.42.4-.64.59a55.55 55.55 0 01-8.2-20l65.76-65.79a55.55 55.55 0 0120.03 8.2z"/><path fill="#ed1c24" d="M129.31 62.5a65 65 0 0 1-128.62 0A66.08 66.08 0 0 0 0 72a65 65 0 0 0 130 0 66.08 66.08 0 0 0-.69-9.5z"/><path fill="#f7931e" d="M65 20a45 45 0 1 1-45 45 45.05 45.05 0 0 1 45-45m0-20a65 65 0 1 0 65 65A65 65 0 0 0 65 0z"/><path fill="#f15a24" d="M65.5 111c-25.27 0-47.76-9.89-62.11-25.26A65 65 0 0 0 126 87.37C111.64 101.81 89.86 111 65.5 111z"/><path fill="#ed1c24" d="M102.88 57.41l.41-.41v.82l-.41-.41z"/><path fill="#c1272d" d="M56.47 64.78a8.28 8.28 0 0 1 16.55 0 8.1 8.1 0 0 1-.18 1.72 8.27 8.27 0 0 0-16.19 0 8.1 8.1 0 0 1-.18-1.72z"/><rect width="12" height="24" x="77.32" y="39.18" fill="#af1722" rx="6" ry="6" transform="rotate(45 83.323 51.174)"/><path fill="#ed1c24" d="M81.75 71.09l-.41.41-.4-.41h.81z"/><rect width="12" height="24" x="76.32" y="37.18" fill="#fff" rx="6" ry="6" transform="rotate(45 82.323 49.17)"/><rect width="12" height="24" x="82.5" y="56.5" fill="#af1722" rx="6" ry="6" transform="rotate(90 88.5 68.5)"/><rect width="12" height="24" x="83.5" y="54.5" fill="#fff" rx="6" ry="6" transform="rotate(90 89.5 66.5)"/><rect width="12" height="24" x="76.32" y="71.82" fill="#fff" rx="6" ry="6" transform="rotate(135 82.326 83.822)"/><rect width="12" height="24" x="59" y="79" fill="#fff" rx="6" ry="6" transform="rotate(180 65 91)"/><rect width="12" height="24" x="41.68" y="71.82" fill="#fff" rx="6" ry="6" transform="rotate(-135 47.679 83.824)"/><rect width="12" height="24" x="34.5" y="54.5" fill="#fff" rx="6" ry="6" transform="rotate(-90 40.5 66.5)"/><rect width="12" height="24" x="41.68" y="37.18" fill="#fff" rx="6" ry="6" transform="rotate(-45 47.681 49.18)"/><rect width="12" height="24" x="59" y="30" fill="#fff" rx="6" ry="6"/><path fill="#af1722" d="M64.75 44a24 24 0 1 0 24 24 24 24 0 0 0-24-24zm0 32a8 8 0 1 1 8-8 8 8 0 0 1-8 8z"/><path fill="#fff" d="M64.75 42a24 24 0 1 0 24 24 24 24 0 0 0-24-24zm0 32a8 8 0 1 1 8-8 8 8 0 0 1-8 8z"/><path fill="#fff" d="M88.75 66a24 24 0 0 1-48 0 23.49 23.49 0 0 1 .53-5 24 24 0 0 0 46.94 0 23.49 23.49 0 0 1 .53 5z"/><circle cx="85.19" cy="45.81" r="4.06" style="mix-blend-mode:soft-light" fill="#fff"/><circle cx="80.46" cy="51.22" r="2.03" style="mix-blend-mode:soft-light" fill="#fff"/></g></g></svg>